<?xml version="1.0" encoding="UTF-8"?>
<svg xmlns="http://www.w3.org/2000/svg" xmlns:xlink="http://www.w3.org/1999/xlink" viewBox="0 0 500 500" width="500px" height="500px">
<g id="surface161338288">
<path style=" stroke:none;fill-rule:nonzero;fill:rgb(0%,65.098041%,98.431373%);fill-opacity:1;" d="M 250 20 C 227.941406 20 210 37.941406 210 60 C 210 82.058594 227.941406 100 250 100 C 272.058594 100 290 82.058594 290 60 C 290 37.941406 272.058594 20 250 20 Z M 70 110 C 47.941406 110 30 127.941406 30 150 C 30 172.058594 47.941406 190 70 190 C 92.058594 190 110 172.058594 110 150 C 110 127.941406 92.058594 110 70 110 Z M 430 110 C 407.941406 110 390 127.941406 390 150 C 390 172.058594 407.941406 190 430 190 C 452.058594 190 470 172.058594 470 150 C 470 127.941406 452.058594 110 430 110 Z M 240 119.101562 L 240 190.917969 C 243.261719 190.359375 246.589844 190 250 190 C 253.410156 190 256.738281 190.347656 260 190.898438 L 260 119.101562 C 256.738281 119.652344 253.410156 120 250 120 C 246.589844 120 243.261719 119.652344 240 119.101562 Z M 373.476562 169.941406 L 296.796875 212.558594 C 300.96875 217.757812 304.242188 223.648438 306.503906 230.039062 L 383.183594 187.441406 C 379.023438 182.25 375.746094 176.332031 373.476562 169.941406 Z M 126.464844 170.136719 C 124.175781 176.507812 120.878906 182.398438 116.699219 187.578125 L 193.242188 230.703125 C 195.433594 224.28125 198.671875 218.355469 202.773438 213.125 Z M 250 210 C 227.949219 210 210 227.949219 210 250 C 210 272.050781 227.949219 290 250 290 C 272.050781 290 290 272.050781 290 250 C 290 227.949219 272.050781 210 250 210 Z M 193.378906 269.648438 L 116.757812 312.480469 C 120.929688 317.671875 124.214844 323.582031 126.484375 329.960938 L 203.007812 287.1875 C 198.878906 281.976562 195.609375 276.046875 193.378906 269.648438 Z M 306.328125 270.46875 C 305.167969 273.648438 303.777344 276.691406 302.128906 279.589844 C 302.117188 279.609375 302.101562 279.636719 302.089844 279.667969 C 300.441406 282.558594 298.574219 285.292969 296.484375 287.851562 L 373.4375 330.15625 C 375.6875 323.777344 378.976562 317.855469 383.125 312.65625 Z M 240 309.101562 L 240 380.917969 C 243.261719 380.367188 246.589844 380.019531 250 380.019531 C 253.410156 380.019531 256.738281 380.367188 260 380.917969 L 260 309.101562 C 256.738281 309.652344 253.410156 310 250 310 C 246.589844 310 243.261719 309.652344 240 309.101562 Z M 70 310 C 47.941406 310 30 327.941406 30 350 C 30 372.058594 47.941406 390 70 390 C 92.058594 390 110 372.058594 110 350 C 110 327.941406 92.058594 310 70 310 Z M 430 310 C 407.941406 310 390 327.941406 390 350 C 390 372.058594 407.941406 390 430 390 C 452.058594 390 470 372.058594 470 350 C 470 327.941406 452.058594 310 430 310 Z M 250 400 C 227.941406 400 210 417.941406 210 440 C 210 462.058594 227.941406 480 250 480 C 272.058594 480 290 462.058594 290 440 C 290 417.941406 272.058594 400 250 400 Z M 250 400 "/>
</g>
</svg>
